<svg xmlns="http://www.w3.org/2000/svg" viewBox="0 0 64 64">
  <defs>
    <linearGradient id="g" x1="0" y1="0" x2="1" y2="1">
      <stop offset="0%" stop-color="#e63946"/>
      <stop offset="100%" stop-color="#d4a657"/>
    </linearGradient>
  </defs>
  <rect width="64" height="64" rx="12" fill="#0a0a0c"/>
  <path d="M10 38c0-2 2-4 4-4l6-1 4-7c1-2 3-3 5-3h18c2 0 4 1 5 3l4 7 4 1c2 0 4 2 4 4v6c0 1-1 2-2 2h-6a4 4 0 1 1-8 0H22a4 4 0 1 1-8 0H8c-1 0-2-1-2-2v-6z" fill="url(#g)"/>
  <circle cx="22" cy="44" r="3" fill="#0a0a0c"/>
  <circle cx="46" cy="44" r="3" fill="#0a0a0c"/>
</svg>
